<svg width="20" height="20" viewBox="0 0 20 20" fill="none" xmlns="http://www.w3.org/2000/svg">
<g clip-path="url(#clip0_48_10368)">
<path d="M12.5583 0.841667H7.55835V2.50833H12.5583V0.841667V0.841667ZM9.22502 11.675H10.8917V6.675H9.22502V11.675ZM15.9167 6.15833L17.1 4.975C16.7417 4.55 16.35 4.15 15.925 3.8L14.7417 4.98333C13.45 3.95 11.825 3.33333 10.0583 3.33333C5.91668 3.33333 2.55835 6.69167 2.55835 10.8333C2.55835 14.975 5.90835 18.3333 10.0583 18.3333C14.2083 18.3333 17.5583 14.975 17.5583 10.8333C17.5583 9.075 16.9417 7.45 15.9167 6.15833ZM10.0583 16.675C6.83335 16.675 4.22502 14.0667 4.22502 10.8417C4.22502 7.61667 6.83335 5.00833 10.0583 5.00833C13.2833 5.00833 15.8917 7.61667 15.8917 10.8417C15.8917 14.0667 13.2833 16.675 10.0583 16.675Z" fill="#F6FFFF"/>
</g>
<defs>
<clipPath id="clip0_48_10368">
<rect width="20" height="20" fill="white"/>
</clipPath>
</defs>
</svg>
